# xmcd CD database file
#
# Track frame offsets:
#	150
#	16725
#	30525
#	51150
#	63300
#
# Disc length: 1105 seconds
#
# Revision: 0
# Processed by: cddbd v1.5.1PL2 Copyright (c) Steve Scherf et al.
# Submitted via: CDex 1.51
#
DISCID=34044f05
DTITLE=Magical Trick Society - The Last Testament 〜Romancing Sa Ga〜 First Preview
DYEAR=2005
DGENRE=Game
TTITLE0=バトル1 (1)
TTITLE1=バトル2 (1)
TTITLE2=帝都アバロン (2)
TTITLE3=ジャングル (3)
TTITLE4=カタリナのテーマ (3)
EXTD=YEAR: 2005
EXTT0=
EXTT1=
EXTT2=
EXTT3=
EXTT4=
PLAYORDER=
